<?xml version="1.0" standalone="no"?>
<!DOCTYPE svg PUBLIC "-//W3C//DTD SVG 20010904//EN"
 "http://www.w3.org/TR/2001/REC-SVG-20010904/DTD/svg10.dtd">
<svg version="1.0" xmlns="http://www.w3.org/2000/svg"
 width="800.000000pt" height="800.000000pt" viewBox="0 0 800.000000 800.000000"
 preserveAspectRatio="xMidYMid meet">

<g transform="translate(0.000000,800.000000) scale(0.100000,-0.100000)"
fill="#000000" stroke="none">
<path d="M3890 6164 c-14 -2 -52 -9 -85 -15 -192 -33 -365 -126 -515 -278 -50
-50 -90 -78 -170 -119 -144 -74 -283 -157 -326 -194 -114 -100 -116 -269 -4
-458 l32 -54 -34 -28 c-61 -53 -172 -124 -283 -183 -232 -122 -351 -220 -401
-330 -22 -48 -25 -64 -20 -133 17 -256 34 -336 93 -443 25 -45 63 -72 79 -56
4 3 25 -22 48 -56 57 -87 134 -140 416 -292 316 -170 333 -177 402 -179 69 -1
96 16 153 100 52 76 95 99 260 139 140 35 202 61 248 104 86 79 89 184 13 376
-88 222 -200 417 -371 645 -43 58 -94 139 -114 180 -32 66 -36 84 -36 150 1
57 6 86 23 121 51 104 182 228 380 361 l106 71 42 -22 c61 -33 148 -113 198
-184 133 -188 188 -394 187 -702 0 -277 -21 -435 -61 -460 -18 -11 -54 41 -78
111 -180 529 -341 818 -501 904 -36 19 -115 15 -153 -7 -19 -10 -43 -38 -56
-63 -33 -64 -27 -164 14 -222 52 -73 135 -97 210 -62 68 32 87 129 37 184 -40
43 -81 49 -120 16 -40 -33 -51 -78 -28 -112 22 -34 69 -31 72 6 3 25 3 25 -7
3 -11 -26 -20 -29 -38 -11 -19 19 -14 53 11 76 29 27 41 28 67 2 64 -64 -24
-151 -109 -107 -58 29 -85 144 -47 201 43 67 110 60 191 -21 112 -109 219
-304 319 -579 145 -397 143 -394 201 -394 35 0 67 25 90 70 24 46 38 222 38
465 0 246 -14 345 -73 506 -59 163 -185 332 -302 406 l-47 30 81 58 c232 166
301 290 205 371 -29 24 -37 26 -92 21 -77 -7 -337 -82 -507 -146 -73 -27 -134
-48 -136 -46 -9 9 121 99 193 135 262 129 713 135 925 13 70 -41 176 -149 241
-246 33 -49 109 -190 169 -315 139 -283 194 -367 312 -474 208 -189 202 -178
282 -528 30 -133 67 -211 153 -331 132 -184 177 -274 215 -429 25 -105 27
-240 4 -329 -32 -125 -78 -193 -241 -356 -83 -83 -171 -182 -197 -220 -25 -39
-93 -167 -151 -285 -106 -218 -159 -300 -242 -371 -22 -18 -86 -77 -141 -130
-114 -108 -156 -129 -258 -129 -142 0 -235 27 -439 127 -184 90 -201 102 -232
163 -61 121 -122 423 -110 550 22 241 88 451 251 804 77 167 79 171 168 260
100 100 153 188 200 326 109 327 158 981 87 1171 -25 66 -78 131 -122 149 -29
12 -33 12 -49 -8 -29 -35 -35 -199 -20 -528 15 -334 11 -439 -25 -598 -31
-139 -65 -241 -139 -417 l-57 -135 -152 -94 c-505 -311 -606 -370 -738 -437
-216 -108 -322 -192 -465 -369 -112 -139 -157 -218 -162 -284 -3 -45 0 -60 17
-81 31 -40 81 -59 153 -59 59 0 71 4 173 61 137 77 205 103 223 85 10 -10 7
-31 -13 -111 -48 -191 -35 -208 130 -164 86 22 116 19 155 -14 19 -17 18 -14
-4 11 -26 28 -36 32 -80 32 -27 0 -78 -5 -114 -11 -41 -7 -67 -8 -73 -2 -6 6
1 44 21 105 50 157 39 214 -43 211 -46 -1 -111 -29 -255 -108 -64 -34 -93 -45
-128 -45 -57 0 -98 21 -114 59 -10 26 -9 37 13 85 98 213 341 433 604 544 82
35 283 154 584 347 116 74 212 135 214 135 2 0 -19 -48 -47 -107 -111 -238
-181 -432 -220 -612 -30 -139 -30 -359 0 -496 33 -147 71 -261 106 -314 28
-42 47 -54 201 -133 236 -120 297 -140 461 -146 180 -6 192 -1 403 198 176
167 216 219 293 380 174 365 183 378 387 580 79 78 150 159 169 191 102 175
117 395 42 620 -40 121 -74 184 -173 325 -129 184 -140 209 -192 443 -44 200
-81 278 -166 357 -34 33 -94 88 -132 124 -95 90 -151 177 -287 455 -65 132
-138 269 -161 305 -60 92 -201 229 -274 267 -117 61 -188 75 -410 78 -110 2
-211 2 -225 -1z m202 -151 c11 -9 18 -30 18 -50 0 -29 -10 -46 -60 -98 -34
-34 -107 -95 -162 -135 l-102 -73 -70 19 c-94 25 -249 25 -326 0 -151 -50
-224 -121 -344 -337 -26 -47 -59 -99 -72 -115 -21 -26 -20 -19 12 56 59 142
151 310 217 400 l63 85 105 44 c199 85 612 218 683 220 11 1 28 -6 38 -16z
m-1003 -404 c-60 -100 -130 -244 -190 -391 -24 -60 -46 -108 -49 -108 -4 0
-24 36 -44 80 -78 165 -57 274 69 360 53 36 258 151 262 146 2 -1 -20 -41 -48
-87z m556 26 c82 -12 82 -13 -27 -87 -196 -134 -311 -247 -366 -358 -24 -49
-27 -66 -27 -155 0 -96 2 -103 38 -175 20 -41 69 -118 108 -170 201 -270 322
-488 400 -721 41 -124 37 -173 -19 -232 -41 -44 -87 -63 -241 -101 -159 -39
-219 -68 -259 -128 -62 -91 -81 -108 -126 -108 -49 0 -90 18 -381 175 -308
165 -374 215 -426 323 -30 61 -41 191 -21 263 l15 57 44 -20 c37 -16 49 -18
79 -8 49 17 68 50 68 124 0 137 -113 256 -243 256 -39 0 -39 9 2 47 47 44 106
82 257 163 310 167 436 286 591 560 35 63 86 137 112 167 61 67 165 120 257
132 64 8 86 8 165 -4z m886 -371 c23 -57 24 -69 24 -304 -1 -253 -13 -382 -55
-592 -40 -194 -125 -407 -193 -483 l-36 -40 45 115 c57 144 97 288 120 421 15
92 16 138 8 399 -9 304 -9 564 2 590 9 23 57 -37 85 -106z m-2193 -768 c63
-33 112 -112 112 -181 0 -74 -33 -93 -96 -55 -29 19 -33 27 -39 78 -3 31 -14
83 -25 115 -18 56 -18 57 1 57 11 0 32 -6 47 -14z m-81 -142 c6 -53 5 -54 -21
-54 -53 0 -60 -82 -13 -151 20 -30 22 -44 19 -111 -2 -43 -8 -78 -13 -78 -27
0 -79 183 -79 275 0 60 22 165 46 220 l17 40 19 -44 c11 -23 22 -67 25 -97z
m0 -126 c-3 -8 -6 -5 -6 6 -1 11 2 17 5 13 3 -3 4 -12 1 -19z"/>
</g>
</svg>
